<svg xmlns="http://www.w3.org/2000/svg" version="1.1" xmlns:xlink="http://www.w3.org/1999/xlink" xmlns:svgjs="http://svgjs.com/svgjs" width="2000" height="5000" preserveAspectRatio="none" viewBox="0 0 2000 5000"><g mask="url(&quot;#SvgjsMask1070&quot;)" fill="none"><rect width="2000" height="5000" x="0" y="0" fill="rgba(0, 0, 0, 1)"></rect><path d="M1070.6420307696314 4526.984098373969L1271.892296020968 4921.9599831919395 1666.8681808389392 4720.709717940603 1465.6179155876025 4325.733833122632z" fill="rgba(255, 80, 3, 0.14)" class="triangle-float3"></path><path d="M-189.07245177168068 3562.1750347822585L196.8899767240939 3609.565262090131 244.28020403196638 3223.6028335943565-141.6822244638082 3176.212606286484z" fill="rgba(255, 80, 3, 0.14)" class="triangle-float1"></path><path d="M1277.7772863657788 2290.6465394683905L1176.3059534813585 1813.2614515314363 698.9208655444043 1914.7327844158563 800.3921984288244 2392.1178723528105z" fill="rgba(255, 80, 3, 0.14)" class="triangle-float1"></path><path d="M152.92824108226228 4949.777687732639L381.7026690705891 4583.662071261304 15.587052599254235 4354.887643272977-213.1873753890726 4721.003259744311z" fill="rgba(255, 80, 3, 0.14)" class="triangle-float1"></path><path d="M-33.433557933404835 1524.269393503745L-72.86855235548524 1899.4683026856526 302.3303568264224 1938.9032971077331 341.7653512485028 1563.7043879258254z" fill="rgba(255, 80, 3, 0.14)" class="triangle-float3"></path><path d="M381.42553532138965 1178.6125564357446L174.62636837663524 940.7173281428759-63.268859916233566 1147.5164950876303 143.53030702852087 1385.411723380499z" fill="rgba(255, 80, 3, 0.14)" class="triangle-float3"></path><path d="M-154.94287752251938 2728.264704051964L246.02071348863518 2707.251092673716 225.00710211038682 2306.287501662561-175.95648890076777 2327.3011130408095z" fill="rgba(255, 80, 3, 0.14)" class="triangle-float3"></path><path d="M1338.2450413609724 1063.6925566026832L1866.7793206327897 979.9809505878842 1783.0677146179905 451.44667131606707 1254.5334353461735 535.1582773308661z" fill="rgba(255, 80, 3, 0.14)" class="triangle-float2"></path><path d="M-231.987132960248 4368.62009126807L142.1017515316637 4756.000471211542 529.4821314751368 4381.9115867196315 155.39324698322514 3994.531206776158z" fill="rgba(255, 80, 3, 0.14)" class="triangle-float1"></path><path d="M1201.0674607484025 2219.5808787841543L822.0707453053641 2494.938110527868 1097.4279770490778 2873.9348259709063 1476.424692492116 2598.5775942271925z" fill="rgba(255, 80, 3, 0.14)" class="triangle-float2"></path><path d="M1765.6901691582577 1522.7022411265007L1624.6470696885956 957.0092669667805 1058.9540955288755 1098.0523664364425 1199.9971949985375 1663.7453405961628z" fill="rgba(255, 80, 3, 0.14)" class="triangle-float2"></path><path d="M1530.8120085736573 2625.8664302873117L1308.7144717193505 2296.5932909442968 979.4413323763354 2518.6908277986036 1201.5388692306421 2847.9639671416185z" fill="rgba(255, 80, 3, 0.14)" class="triangle-float3"></path><path d="M-167.20246126031464 4059.8081816386284L140.51702550598532 4300.224993645163 380.93383751251963 3992.505506878863 73.21435074621965 3752.0886948723282z" fill="rgba(255, 80, 3, 0.14)" class="triangle-float2"></path><path d="M803.6092154852017 4363.832165331364L1320.0369661449568 4155.181810315764 1111.3866111293564 3638.754059656009 594.9588604696014 3847.404414671609z" fill="rgba(255, 80, 3, 0.14)" class="triangle-float2"></path><path d="M1317.303713096859 2493.831152722427L1330.7598887296588 2879.165606362683 1716.094342369915 2865.709430729883 1702.6381667371152 2480.374977089627z" fill="rgba(255, 80, 3, 0.14)" class="triangle-float2"></path><path d="M13.365812346545908 2640.9228484214836L-106.24725009341468 2952.525529378362 205.35543086346354 3072.1385918183223 324.9684933034241 2760.5359108614443z" fill="rgba(255, 80, 3, 0.14)" class="triangle-float1"></path><path d="M315.5118837007194 2309.802713353153L574.0957307959434 2577.574125676843 841.867143119633 2318.990278581619 583.2832960244091 2051.218866257929z" fill="rgba(255, 80, 3, 0.14)" class="triangle-float3"></path><path d="M1301.6066897528033 3775.1131447524276L1093.7956571472985 4264.685257560383 1583.367769955254 4472.496290165888 1791.1788025607589 3982.9241773579324z" fill="rgba(255, 80, 3, 0.14)" class="triangle-float2"></path><path d="M898.4963600909665 1999.723464949348L616.9958050467694 2244.4281641371754 861.7005042345967 2525.9287191813723 1143.2010592787938 2281.224019993545z" fill="rgba(255, 80, 3, 0.14)" class="triangle-float2"></path><path d="M1166.1047854390504 1019.2472681460008L1596.2524455941948 1393.168924421549 1970.174101869743 963.0212642664046 1540.0264417145986 589.0996079908564z" fill="rgba(255, 80, 3, 0.14)" class="triangle-float1"></path></g><defs><mask id="SvgjsMask1070"><rect width="2000" height="5000" fill="#ffffff"></rect></mask><style>
            @keyframes float1 {
                0%{transform: translate(0, 0)}
                50%{transform: translate(-30px, 0)}
                100%{transform: translate(0, 0)}
            }

            .triangle-float1 {
                animation: float1 5s infinite;
            }

            @keyframes float2 {
                0%{transform: translate(0, 0)}
                50%{transform: translate(-15px, -15px)}
                100%{transform: translate(0, 0)}
            }

            .triangle-float2 {
                animation: float2 4s infinite;
            }

            @keyframes float3 {
                0%{transform: translate(0, 0)}
                50%{transform: translate(0, -30px)}
                100%{transform: translate(0, 0)}
            }

            .triangle-float3 {
                animation: float3 6s infinite;
            }
        </style></defs></svg>